<svg xmlns="http://www.w3.org/2000/svg" width="209.2" height="34.85"><style>.st0{fill:#1a1a1a}</style><path class="st0" d="M0 34.4V.1h.54l16.23 18.97L32.85.1h.55v34.3h-5.04V16.77l.19-4.89c-1.09 1.7-2.11 3.06-3.04 4.09l-8.54 10.29h-.6L7.83 15.97l-2.99-4.09c.13 2 .2 3.63.2 4.89V34.4zm79.78-13.28h3c6.29 0 9.43-2.67 9.43-7.99 0-5.36-3.14-8.04-9.43-8.04h-3zm11.04 2.79l7.19 10.49h-6.1l-6.09-8.94c-1.26.13-2.21.2-2.84.2h-3.2v8.74h-5.29V.45h8.49c4.66 0 8.26 1.13 10.81 3.39 2.54 2.26 3.82 5.36 3.82 9.29 0 5.19-2.27 8.78-6.79 10.78"/><path d="M120.57 34.85c-4.89 0-9.02-1.65-12.38-4.95-3.36-3.29-5.04-7.45-5.04-12.48 0-4.99 1.68-9.14 5.04-12.43 3.36-3.3 7.49-4.94 12.38-4.94 6.06 0 10.59 2.24 13.59 6.74l-4.05 2.89c-2.1-3.26-5.27-4.89-9.54-4.89-3.49 0-6.37 1.2-8.63 3.59-2.27 2.4-3.4 5.41-3.4 9.04 0 3.63 1.13 6.65 3.4 9.06 2.26 2.42 5.14 3.62 8.63 3.62 4.3 0 7.64-1.78 10.04-5.34l4.04 2.85c-3.16 4.82-7.85 7.24-14.08 7.24m20.07-.45V.44h5.3v15.28h16.32V.44h5.3V34.4h-5.3V20.41h-16.32V34.4zm42.37-7.92c2.28 2.42 5.18 3.62 8.71 3.62 3.53 0 6.42-1.2 8.69-3.62 2.26-2.41 3.39-5.43 3.39-9.06 0-3.63-1.13-6.65-3.39-9.06-2.27-2.42-5.16-3.62-8.69-3.62-3.53 0-6.43 1.2-8.71 3.62-2.28 2.41-3.42 5.43-3.42 9.06 0 3.63 1.14 6.65 3.42 9.06m8.71 8.37c-4.93 0-9.08-1.65-12.46-4.95-3.38-3.29-5.07-7.45-5.07-12.48s1.69-9.19 5.07-12.48c3.38-3.3 7.53-4.94 12.46-4.94 4.89 0 9.03 1.64 12.41 4.94 3.38 3.29 5.07 7.45 5.07 12.48s-1.69 9.19-5.07 12.48c-3.38 3.3-7.52 4.95-12.41 4.95" fill="#fe3e57"/><path class="st0" d="M54.07.1h-.6L38.94 34.4h5.09l9.64-24.87 9.78 24.87h5.5z"/></svg>