<svg xmlns="http://www.w3.org/2000/svg" width="209.2" height="34.85" viewBox="0 0 209.2 34.85">
	<style type="text/css">
		.st1{fill:#fe3e57;}
		.st0{fill:#1a1a1a;}
	</style>
	<path class="st0" d="M0,34.4L0,0.1L0.54,0.1L16.77,19.07L32.85,0.1L33.4,0.1L33.4,34.4L28.36,34.4L28.36,16.77L28.55,11.88C27.46,13.58 26.44,14.94 25.51,15.97L16.97,26.26L16.37,26.26L7.83,15.97L4.84,11.88C4.97,13.88 5.04,15.51 5.04,16.77L5.04,34.4Z"/>
	<path class="st0" d="M79.78,21.12L82.78,21.12C89.07,21.12 92.21,18.45 92.21,13.13C92.21,7.77 89.07,5.09 82.78,5.09L79.78,5.09ZM90.82,23.91L98.01,34.4L91.91,34.4L85.82,25.46C84.56,25.59 83.61,25.66 82.98,25.66L79.78,25.66L79.78,34.4L74.49,34.4L74.49,0.45L82.98,0.45C87.64,0.45 91.24,1.58 93.79,3.84C96.33,6.1 97.61,9.2 97.61,13.13C97.61,18.32 95.34,21.91 90.82,23.91"/>
	<path class="st1" d="M120.57,34.85C115.68,34.85 111.55,33.2 108.19,29.9C104.83,26.61 103.15,22.45 103.15,17.42C103.15,12.43 104.83,8.28 108.19,4.99C111.55,1.69 115.68,0.05 120.57,0.05C126.63,0.05 131.16,2.29 134.16,6.79L130.11,9.68C128.01,6.42 124.84,4.79 120.57,4.79C117.08,4.79 114.2,5.99 111.94,8.38C109.67,10.78 108.54,13.79 108.54,17.42C108.54,21.05 109.67,24.07 111.94,26.48C114.2,28.9 117.08,30.1 120.57,30.1C124.87,30.1 128.21,28.32 130.61,24.76L134.65,27.61C131.49,32.43 126.8,34.85 120.57,34.85"/>
	<path class="st1" d="M140.64,34.4L140.64,0.44L145.94,0.44L145.94,15.72L162.26,15.72L162.26,0.44L167.56,0.44L167.56,34.4L162.26,34.4L162.26,20.41L145.94,20.41L145.94,34.4Z"/>
	<path class="st1" d="M183.01,26.48C185.29,28.9 188.19,30.1 191.72,30.1C195.25,30.1 198.14,28.9 200.41,26.48C202.67,24.07 203.8,21.05 203.8,17.42C203.8,13.79 202.67,10.77 200.41,8.36C198.14,5.94 195.25,4.74 191.72,4.74C188.19,4.74 185.29,5.94 183.01,8.36C180.73,10.77 179.59,13.79 179.59,17.42C179.59,21.05 180.73,24.07 183.01,26.48M191.72,34.85C186.79,34.85 182.64,33.2 179.26,29.9C175.88,26.61 174.19,22.45 174.19,17.42C174.19,12.39 175.88,8.23 179.26,4.94C182.64,1.64 186.79,0 191.72,0C196.61,0 200.75,1.64 204.13,4.94C207.51,8.23 209.2,12.39 209.2,17.42C209.2,22.45 207.51,26.61 204.13,29.9C200.75,33.2 196.61,34.85 191.72,34.85"/>
	<path class="st0" d="M54.07,0.1L53.47,0.1L38.94,34.4L44.03,34.4L53.67,9.53L63.45,34.4L68.95,34.4Z"/>
</svg>